Coordinates
version=1
nRows=18
nColumns=22
inDegrees=yes

Units are S.I. units (second, meters, Newtons, ...)
If the header above contains a line with 'inDegrees', this indicates whether rotational values are in degrees (yes) or radians (no).

endheader
time	pelvis_tilt	pelvis_list	pelvis_rotation	pelvis_tx	pelvis_ty	pelvis_tz	hip_flexion_r	hip_adduction_r	hip_rotation_r	knee_angle_r	ankle_angle_r	subtalar_angle_r	hip_flexion_l	hip_adduction_l	hip_rotation_l	knee_angle_l	ankle_angle_l	subtalar_angle_l	lumbar_extension	lumbar_bending	lumbar_rotation
      3.55000000	     -7.44258231	     -1.93734047	    -61.64497677	      0.09629279	      0.95802115	      0.88912769	     24.75266595	      4.71521210	    -14.70261029	    -23.42800939	     -1.17619836	     -0.71666434	     -0.93168287	    -11.75105511	      6.80254778	    -40.25413938	      6.97674797	     10.76599278	      0.60940037	      7.75712372	    -14.62572289
      3.56000000	     -7.53964327	     -1.85273309	    -61.83430188	      0.09693150	      0.95898975	      0.89577644	     24.36453380	      5.01828590	    -14.61434842	    -23.24350271	     -0.81387309	     -0.80425889	      0.32775170	    -11.77421490	      6.88651143	    -42.42880794	      6.10962329	     10.29617248	      0.68624437	      7.81968492	    -14.53653547
      3.57000000	     -7.69552989	     -1.82517668	    -62.06804602	      0.09743773	      0.95988440	      0.90229802	     23.94501641	      5.42262552	    -14.49238785	    -23.01758048	     -0.52512255	     -0.86367145	      1.56982794	    -11.89665261	      6.91014949	    -44.53995942	      5.46852057	      9.89580326	      0.72159983	      7.96964348	    -14.37936549
      3.58000000	     -7.85496458	     -1.78555820	    -62.29857560	      0.09788889	      0.96065611	      0.90860032	     23.55933341	      5.81402787	    -14.37728936	    -22.80824789	     -0.21472027	     -0.93111625	      2.83361743	    -12.00378241	      6.97775560	    -46.54446009	      5.02326129	      9.35909117	      0.75845367	      8.11526624	    -14.20614020
      3.59000000	     -7.98269949	     -1.73824515	    -62.52693488	      0.09831712	      0.96135360	      0.91469886	     23.18723210	      6.16210335	    -14.26115682	    -22.62295861	      0.12223661	     -1.01981705	      4.07107544	    -12.05762337	      7.08181602	    -48.38381863	      4.75797732	      8.50527152	      0.77619726	      8.22315756	    -14.03407743
      3.60000000	     -8.17022457	     -1.75700826	    -62.81406974	      0.09859820	      0.96204245	      0.92071491	     22.76441043	      6.62832904	    -14.07830864	    -22.38238711	      0.36817246	     -1.07001973	      5.23385511	    -12.21361482	      7.14450164	    -50.03749875	      4.80530058	      7.99120031	      0.74566957	      8.41863371	    -13.75053516
      3.61000000	     -8.30993748	     -1.72791238	    -63.05755401	      0.09891209	      0.96265409	      0.92647893	     22.39042552	      6.99957617	    -13.92087342	    -22.17629386	      0.66101572	     -1.15877299	      6.40222603	    -12.26075655	      7.30049970	    -51.48248782	      4.98036033	      7.06179940	      0.73646088	      8.53870429	    -13.53345566
      3.62000000	     -8.44214710	     -1.73261837	    -63.34689363	      0.09915734	      0.96330064	      0.93215005	     21.97744262	      7.39468823	    -13.71995007	    -21.95387150	      0.91525010	     -1.24005485	      7.46337080	    -12.30635778	      7.44041468	    -52.67722868	      5.38409264	      6.23574861	      0.68318932	      8.66310947	    -13.21487766
      3.63000000	     -8.55633823	     -1.72907413	    -63.63736794	      0.09936783	      0.96394433	      0.93764272	     21.57027755	      7.76790146	    -13.48667128	    -21.72631719	      1.13512476	     -1.32108562	      8.47803652	    -12.30306837	      7.62145808	    -53.63387456	      5.93855898	      5.46402448	      0.62328602	      8.75987083	    -12.90246941
      3.64000000	     -8.63841188	     -1.71813285	    -63.93166432	      0.09958049	      0.96460245	      0.94298605	     21.16360398	      8.10143568	    -13.23881944	    -21.50447237	      1.33752307	     -1.40886749	      9.42409520	    -12.23527988	      7.83276667	    -54.33833067	      6.61559829	      4.71286237	      0.55639960	      8.81686213	    -12.57362774
      3.65000000	     -8.69065373	     -1.69286048	    -64.22583732	      0.09980087	      0.96527340	      0.94818134	     20.75977617	      8.39419726	    -12.97862025	    -21.27836595	      1.52594735	     -1.50289502	     10.30570675	    -12.09794465	      8.08327995	    -54.78814898	      7.38689409	      4.01759194	      0.49247357	      8.83415300	    -12.23832514
      3.66000000	     -8.70885939	     -1.65263986	    -64.51433864	      0.10005451	      0.96595789	      0.95322887	     20.36315042	      8.63552959	    -12.72322297	    -21.05969435	      1.70231506	     -1.60737892	     11.12043639	    -11.88429905	      8.37628666	    -54.98898532	      8.21124142	      3.36216341	      0.43397054	      8.80872521	    -11.90587483
      3.67000000	     -8.69927001	     -1.59939286	    -64.79577173	      0.10031835	      0.96665126	      0.95809486	     19.97764177	      8.83509532	    -12.45597412	    -20.84628933	      1.86074462	     -1.71213569	     11.87603800	    -11.60558994	      8.70898257	    -54.95399732	      9.06736986	      2.81628109	      0.37439066	      8.75112475	    -11.59649355
      3.68000000	     -8.67694350	     -1.53756434	    -65.07411018	      0.10060552	      0.96733955	      0.96281584	     19.60706156	      9.00395039	    -12.21083620	    -20.64581778	      2.01649285	     -1.79085038	     12.57209528	    -11.28709531	      9.07246676	    -54.69380260	      9.94924262	      2.47629675	      0.32291034	      8.67786673	    -11.28315633
      3.69000000	     -8.62905735	     -1.44231378	    -65.33870117	      0.10092580	      0.96802362	      0.96736690	     19.24941954	      9.12851308	    -11.92874101	    -20.41724445	      2.13671979	     -1.89806824	     13.23290455	    -10.90477544	      9.46555753	    -54.21966960	     10.75333616	      2.06774359	      0.29790462	      8.56811171	    -11.01382028
      3.70000000	     -8.59637643	     -1.36292562	    -65.56668933	      0.10129259	      0.96870018	      0.97175477	     18.89736133	      9.24982197	    -11.70399219	    -20.19554960	      2.24454665	     -1.93427418	     13.84097571	    -10.52550081	      9.92570209	    -53.55541595	     11.56649239	      1.93371707	      0.26913514	      8.48413203	    -10.80060801
      3.71000000	     -8.52579211	     -1.24595558	    -65.84063612	      0.10161898	      0.96933852	      0.97598886	     18.58967591	      9.32312593	    -11.41851935	    -20.01231427	      2.37480312	     -2.00629269	     14.40052990	    -10.10621662	     10.32111082	    -52.70492950	     12.32171979	      1.72553894	      0.24911327	      8.34763867	    -10.50627879
      3.72000000	     -8.49251769	     -1.13727944	    -66.05224809	      0.10201287	      0.96995061	      0.98005733	     18.28349143	      9.41366014	    -11.17708594	    -19.79123599	      2.46389690	     -2.03536884	     14.94329811	     -9.71706486	     10.79442422	    -51.70416837	     13.03321709	      1.63124488	      0.24573636	      8.25712077	    -10.32350589
